# xmcd CD database file
#
# Track frame offsets:
#	150
#	30714
#	42570
#	58900
#	69480
#	102044
#	114295
#	125349
#	135968
#	148435
#	170992
#	183163
#	195818
#	205603
#	223651
#	246484
#	258551
#	288864
#	309403
#
# Disc length: 4318 seconds
#
# Revision: 0
# Processed by: cddbd v1.5PL3 Copyright (c) Steve Scherf et al.
# Submitted via: CDex 1.51
#
DISCID=1f10dc13
DTITLE=Blues Before Sunrise - Blues Before Sunrise
DYEAR=1900
DGENRE=Jazz
TTITLE0=Ronnie Earl/ Welcome Home
TTITLE1=Unknown
TTITLE2=Little Milton/ Some Kind of Wonderful
TTITLE3=Elmore James/ Done Sombody Wrong
TTITLE4=Ella and Duke Ellington/ It Don't Mean a Thing
TTITLE5=Elmore James/ Blues Before Sunrise
TTITLE6=Elmore James/ Call it Stormy Monday
TTITLE7=Elmore James/ I Done Somebody Wrong
TTITLE8=Elmore James/ The Sky is Crying
TTITLE9=Unknown
TTITLE10=Elmore James/ Missteating Mama
TTITLE11=Elmore James/ Dust my Broom
TTITLE12=Eric Clapton/ Tribute to Elmore
TTITLE13=Louis Armstrong/ It Don't Mean a Thing
TTITLE14=Little Milton/ Blue Monday
TTITLE15=Little Milton/ We're gonna make it
TTITLE16=Lightning Hopkins/ Three Aces on the Buttom
TTITLE17=Matt Guitar Murphy/ Bucks Boogie
TTITLE18=Unknown
EXTD=
EXTT0=
EXTT1=
EXTT2=
EXTT3=
EXTT4=
EXTT5=
EXTT6=
EXTT7=
EXTT8=
EXTT9=
EXTT10=
EXTT11=
EXTT12=
EXTT13=
EXTT14=
EXTT15=
EXTT16=
EXTT17=
EXTT18=
PLAYORDER=
